<mxfile host="app.diagrams.net" modified="2024-06-16T14:58:07.996Z" agent="Mozilla/5.0 (Windows NT 10.0; Win64; x64) AppleWebKit/537.36 (KHTML, like Gecko) Chrome/127.0.0.0 Safari/537.36 Edg/127.0.0.0" etag="pdIjR7ir-JBbrECTGztC" version="24.5.4" type="github">
  <diagram name="第 1 页" id="Vv7K0Z9YcaabSBtemKyn">
    <mxGraphModel dx="2620" dy="1680" grid="0" gridSize="10" guides="1" tooltips="1" connect="1" arrows="1" fold="1" page="1" pageScale="1" pageWidth="827" pageHeight="1169" background="none" math="0" shadow="0">
      <root>
        <mxCell id="0" />
        <mxCell id="1" parent="0" />
        <mxCell id="asMnh2SLZ0_MW1p4lzxj-1" value="1" style="whiteSpace=wrap;html=1;fillColor=#f0a30a;fontColor=#000000;strokeColor=#BD7000;" vertex="1" parent="1">
          <mxGeometry x="120" y="160" width="40" height="40" as="geometry" />
        </mxCell>
        <mxCell id="asMnh2SLZ0_MW1p4lzxj-2" value="2" style="whiteSpace=wrap;html=1;" vertex="1" parent="1">
          <mxGeometry x="160" y="160" width="40" height="40" as="geometry" />
        </mxCell>
        <mxCell id="asMnh2SLZ0_MW1p4lzxj-3" value="3" style="whiteSpace=wrap;html=1;" vertex="1" parent="1">
          <mxGeometry x="200" y="160" width="40" height="40" as="geometry" />
        </mxCell>
        <mxCell id="asMnh2SLZ0_MW1p4lzxj-4" value="4" style="whiteSpace=wrap;html=1;" vertex="1" parent="1">
          <mxGeometry x="240" y="160" width="40" height="40" as="geometry" />
        </mxCell>
        <mxCell id="asMnh2SLZ0_MW1p4lzxj-5" value="5" style="whiteSpace=wrap;html=1;" vertex="1" parent="1">
          <mxGeometry x="280" y="160" width="40" height="40" as="geometry" />
        </mxCell>
        <mxCell id="asMnh2SLZ0_MW1p4lzxj-6" value="6" style="whiteSpace=wrap;html=1;" vertex="1" parent="1">
          <mxGeometry x="320" y="160" width="40" height="40" as="geometry" />
        </mxCell>
        <mxCell id="asMnh2SLZ0_MW1p4lzxj-7" value="7" style="whiteSpace=wrap;html=1;" vertex="1" parent="1">
          <mxGeometry x="360" y="160" width="40" height="40" as="geometry" />
        </mxCell>
        <mxCell id="asMnh2SLZ0_MW1p4lzxj-8" value="8" style="whiteSpace=wrap;html=1;" vertex="1" parent="1">
          <mxGeometry x="400" y="160" width="40" height="40" as="geometry" />
        </mxCell>
        <mxCell id="asMnh2SLZ0_MW1p4lzxj-10" value="9" style="whiteSpace=wrap;html=1;" vertex="1" parent="1">
          <mxGeometry x="440" y="160" width="40" height="40" as="geometry" />
        </mxCell>
        <mxCell id="asMnh2SLZ0_MW1p4lzxj-11" value="&lt;font color=&quot;#ffffff&quot;&gt;10&lt;/font&gt;" style="whiteSpace=wrap;html=1;fillColor=#6D1FA8;" vertex="1" parent="1">
          <mxGeometry x="480" y="160" width="40" height="40" as="geometry" />
        </mxCell>
        <mxCell id="asMnh2SLZ0_MW1p4lzxj-12" value="11" style="whiteSpace=wrap;html=1;" vertex="1" parent="1">
          <mxGeometry x="520" y="160" width="40" height="40" as="geometry" />
        </mxCell>
        <mxCell id="asMnh2SLZ0_MW1p4lzxj-13" value="12" style="whiteSpace=wrap;html=1;" vertex="1" parent="1">
          <mxGeometry x="560" y="160" width="40" height="40" as="geometry" />
        </mxCell>
        <mxCell id="asMnh2SLZ0_MW1p4lzxj-14" value="13" style="whiteSpace=wrap;html=1;" vertex="1" parent="1">
          <mxGeometry x="600" y="160" width="40" height="40" as="geometry" />
        </mxCell>
        <mxCell id="asMnh2SLZ0_MW1p4lzxj-15" value="1" style="whiteSpace=wrap;html=1;fillColor=#008a00;fontColor=#ffffff;strokeColor=#005700;" vertex="1" parent="1">
          <mxGeometry x="120" y="320" width="40" height="40" as="geometry" />
        </mxCell>
        <mxCell id="asMnh2SLZ0_MW1p4lzxj-16" value="2" style="whiteSpace=wrap;html=1;fillColor=#f0a30a;fontColor=#000000;strokeColor=#BD7000;" vertex="1" parent="1">
          <mxGeometry x="160" y="320" width="40" height="40" as="geometry" />
        </mxCell>
        <mxCell id="asMnh2SLZ0_MW1p4lzxj-17" value="3" style="whiteSpace=wrap;html=1;" vertex="1" parent="1">
          <mxGeometry x="200" y="320" width="40" height="40" as="geometry" />
        </mxCell>
        <mxCell id="asMnh2SLZ0_MW1p4lzxj-18" value="4" style="whiteSpace=wrap;html=1;" vertex="1" parent="1">
          <mxGeometry x="240" y="320" width="40" height="40" as="geometry" />
        </mxCell>
        <mxCell id="asMnh2SLZ0_MW1p4lzxj-19" value="5" style="whiteSpace=wrap;html=1;" vertex="1" parent="1">
          <mxGeometry x="280" y="320" width="40" height="40" as="geometry" />
        </mxCell>
        <mxCell id="asMnh2SLZ0_MW1p4lzxj-20" value="6" style="whiteSpace=wrap;html=1;" vertex="1" parent="1">
          <mxGeometry x="320" y="320" width="40" height="40" as="geometry" />
        </mxCell>
        <mxCell id="asMnh2SLZ0_MW1p4lzxj-21" value="7" style="whiteSpace=wrap;html=1;" vertex="1" parent="1">
          <mxGeometry x="360" y="320" width="40" height="40" as="geometry" />
        </mxCell>
        <mxCell id="asMnh2SLZ0_MW1p4lzxj-22" value="8" style="whiteSpace=wrap;html=1;" vertex="1" parent="1">
          <mxGeometry x="400" y="320" width="40" height="40" as="geometry" />
        </mxCell>
        <mxCell id="asMnh2SLZ0_MW1p4lzxj-23" value="9" style="whiteSpace=wrap;html=1;" vertex="1" parent="1">
          <mxGeometry x="440" y="320" width="40" height="40" as="geometry" />
        </mxCell>
        <mxCell id="asMnh2SLZ0_MW1p4lzxj-24" value="&lt;font color=&quot;#ffffff&quot;&gt;10&lt;/font&gt;" style="whiteSpace=wrap;html=1;fillColor=#6D1FA8;" vertex="1" parent="1">
          <mxGeometry x="480" y="320" width="40" height="40" as="geometry" />
        </mxCell>
        <mxCell id="asMnh2SLZ0_MW1p4lzxj-25" value="11" style="whiteSpace=wrap;html=1;" vertex="1" parent="1">
          <mxGeometry x="520" y="320" width="40" height="40" as="geometry" />
        </mxCell>
        <mxCell id="asMnh2SLZ0_MW1p4lzxj-26" value="12" style="whiteSpace=wrap;html=1;" vertex="1" parent="1">
          <mxGeometry x="560" y="320" width="40" height="40" as="geometry" />
        </mxCell>
        <mxCell id="asMnh2SLZ0_MW1p4lzxj-27" value="13" style="whiteSpace=wrap;html=1;" vertex="1" parent="1">
          <mxGeometry x="600" y="320" width="40" height="40" as="geometry" />
        </mxCell>
        <mxCell id="asMnh2SLZ0_MW1p4lzxj-28" value="1" style="whiteSpace=wrap;html=1;fillColor=#008a00;fontColor=#ffffff;strokeColor=#005700;" vertex="1" parent="1">
          <mxGeometry x="120" y="480" width="40" height="40" as="geometry" />
        </mxCell>
        <mxCell id="asMnh2SLZ0_MW1p4lzxj-29" value="2" style="whiteSpace=wrap;html=1;fillColor=#008a00;fontColor=#ffffff;strokeColor=#005700;" vertex="1" parent="1">
          <mxGeometry x="160" y="480" width="40" height="40" as="geometry" />
        </mxCell>
        <mxCell id="asMnh2SLZ0_MW1p4lzxj-30" value="3" style="whiteSpace=wrap;html=1;fillColor=#008a00;fontColor=#ffffff;strokeColor=#005700;" vertex="1" parent="1">
          <mxGeometry x="200" y="480" width="40" height="40" as="geometry" />
        </mxCell>
        <mxCell id="asMnh2SLZ0_MW1p4lzxj-31" value="4" style="whiteSpace=wrap;html=1;fillColor=#f0a30a;fontColor=#000000;strokeColor=#BD7000;" vertex="1" parent="1">
          <mxGeometry x="240" y="480" width="40" height="40" as="geometry" />
        </mxCell>
        <mxCell id="asMnh2SLZ0_MW1p4lzxj-32" value="5" style="whiteSpace=wrap;html=1;" vertex="1" parent="1">
          <mxGeometry x="280" y="480" width="40" height="40" as="geometry" />
        </mxCell>
        <mxCell id="asMnh2SLZ0_MW1p4lzxj-33" value="6" style="whiteSpace=wrap;html=1;" vertex="1" parent="1">
          <mxGeometry x="320" y="480" width="40" height="40" as="geometry" />
        </mxCell>
        <mxCell id="asMnh2SLZ0_MW1p4lzxj-34" value="7" style="whiteSpace=wrap;html=1;" vertex="1" parent="1">
          <mxGeometry x="360" y="480" width="40" height="40" as="geometry" />
        </mxCell>
        <mxCell id="asMnh2SLZ0_MW1p4lzxj-35" value="8" style="whiteSpace=wrap;html=1;" vertex="1" parent="1">
          <mxGeometry x="400" y="480" width="40" height="40" as="geometry" />
        </mxCell>
        <mxCell id="asMnh2SLZ0_MW1p4lzxj-36" value="9" style="whiteSpace=wrap;html=1;" vertex="1" parent="1">
          <mxGeometry x="440" y="480" width="40" height="40" as="geometry" />
        </mxCell>
        <mxCell id="asMnh2SLZ0_MW1p4lzxj-37" value="&lt;font color=&quot;#ffffff&quot;&gt;10&lt;/font&gt;" style="whiteSpace=wrap;html=1;fillColor=#6D1FA8;" vertex="1" parent="1">
          <mxGeometry x="480" y="480" width="40" height="40" as="geometry" />
        </mxCell>
        <mxCell id="asMnh2SLZ0_MW1p4lzxj-38" value="11" style="whiteSpace=wrap;html=1;" vertex="1" parent="1">
          <mxGeometry x="520" y="480" width="40" height="40" as="geometry" />
        </mxCell>
        <mxCell id="asMnh2SLZ0_MW1p4lzxj-39" value="12" style="whiteSpace=wrap;html=1;" vertex="1" parent="1">
          <mxGeometry x="560" y="480" width="40" height="40" as="geometry" />
        </mxCell>
        <mxCell id="asMnh2SLZ0_MW1p4lzxj-40" value="13" style="whiteSpace=wrap;html=1;" vertex="1" parent="1">
          <mxGeometry x="600" y="480" width="40" height="40" as="geometry" />
        </mxCell>
        <mxCell id="asMnh2SLZ0_MW1p4lzxj-41" value="1" style="whiteSpace=wrap;html=1;fillColor=#008a00;fontColor=#ffffff;strokeColor=#005700;" vertex="1" parent="1">
          <mxGeometry x="120" y="640" width="40" height="40" as="geometry" />
        </mxCell>
        <mxCell id="asMnh2SLZ0_MW1p4lzxj-42" value="2" style="whiteSpace=wrap;html=1;fillColor=#008a00;fontColor=#ffffff;strokeColor=#005700;" vertex="1" parent="1">
          <mxGeometry x="160" y="640" width="40" height="40" as="geometry" />
        </mxCell>
        <mxCell id="asMnh2SLZ0_MW1p4lzxj-43" value="3" style="whiteSpace=wrap;html=1;fillColor=#008a00;fontColor=#ffffff;strokeColor=#005700;" vertex="1" parent="1">
          <mxGeometry x="200" y="640" width="40" height="40" as="geometry" />
        </mxCell>
        <mxCell id="asMnh2SLZ0_MW1p4lzxj-44" value="4" style="whiteSpace=wrap;html=1;fillColor=#008a00;fontColor=#ffffff;strokeColor=#005700;" vertex="1" parent="1">
          <mxGeometry x="240" y="640" width="40" height="40" as="geometry" />
        </mxCell>
        <mxCell id="asMnh2SLZ0_MW1p4lzxj-45" value="5" style="whiteSpace=wrap;html=1;fillColor=#008a00;fontColor=#ffffff;strokeColor=#005700;" vertex="1" parent="1">
          <mxGeometry x="280" y="640" width="40" height="40" as="geometry" />
        </mxCell>
        <mxCell id="asMnh2SLZ0_MW1p4lzxj-46" value="6" style="whiteSpace=wrap;html=1;fillColor=#008a00;fontColor=#ffffff;strokeColor=#005700;" vertex="1" parent="1">
          <mxGeometry x="320" y="640" width="40" height="40" as="geometry" />
        </mxCell>
        <mxCell id="asMnh2SLZ0_MW1p4lzxj-47" value="7" style="whiteSpace=wrap;html=1;fillColor=#f0a30a;fontColor=#000000;strokeColor=#BD7000;" vertex="1" parent="1">
          <mxGeometry x="360" y="640" width="40" height="40" as="geometry" />
        </mxCell>
        <mxCell id="asMnh2SLZ0_MW1p4lzxj-48" value="8" style="whiteSpace=wrap;html=1;" vertex="1" parent="1">
          <mxGeometry x="400" y="640" width="40" height="40" as="geometry" />
        </mxCell>
        <mxCell id="asMnh2SLZ0_MW1p4lzxj-49" value="9" style="whiteSpace=wrap;html=1;" vertex="1" parent="1">
          <mxGeometry x="440" y="640" width="40" height="40" as="geometry" />
        </mxCell>
        <mxCell id="asMnh2SLZ0_MW1p4lzxj-50" value="&lt;font style=&quot;background-color: rgb(109, 31, 168);&quot; color=&quot;#ffffff&quot;&gt;10&lt;/font&gt;" style="whiteSpace=wrap;html=1;fillColor=#6D1FA8;" vertex="1" parent="1">
          <mxGeometry x="480" y="640" width="40" height="40" as="geometry" />
        </mxCell>
        <mxCell id="asMnh2SLZ0_MW1p4lzxj-51" value="11" style="whiteSpace=wrap;html=1;" vertex="1" parent="1">
          <mxGeometry x="520" y="640" width="40" height="40" as="geometry" />
        </mxCell>
        <mxCell id="asMnh2SLZ0_MW1p4lzxj-52" value="12" style="whiteSpace=wrap;html=1;" vertex="1" parent="1">
          <mxGeometry x="560" y="640" width="40" height="40" as="geometry" />
        </mxCell>
        <mxCell id="asMnh2SLZ0_MW1p4lzxj-53" value="13" style="whiteSpace=wrap;html=1;" vertex="1" parent="1">
          <mxGeometry x="600" y="640" width="40" height="40" as="geometry" />
        </mxCell>
        <mxCell id="asMnh2SLZ0_MW1p4lzxj-54" value="1" style="whiteSpace=wrap;html=1;fillColor=#008a00;fontColor=#ffffff;strokeColor=#005700;" vertex="1" parent="1">
          <mxGeometry x="120" y="800" width="40" height="40" as="geometry" />
        </mxCell>
        <mxCell id="asMnh2SLZ0_MW1p4lzxj-55" value="2" style="whiteSpace=wrap;html=1;fillColor=#008a00;fontColor=#ffffff;strokeColor=#005700;" vertex="1" parent="1">
          <mxGeometry x="160" y="800" width="40" height="40" as="geometry" />
        </mxCell>
        <mxCell id="asMnh2SLZ0_MW1p4lzxj-56" value="3" style="whiteSpace=wrap;html=1;fillColor=#008a00;fontColor=#ffffff;strokeColor=#005700;" vertex="1" parent="1">
          <mxGeometry x="200" y="800" width="40" height="40" as="geometry" />
        </mxCell>
        <mxCell id="asMnh2SLZ0_MW1p4lzxj-57" value="4" style="whiteSpace=wrap;html=1;fillColor=#008a00;fontColor=#ffffff;strokeColor=#005700;" vertex="1" parent="1">
          <mxGeometry x="240" y="800" width="40" height="40" as="geometry" />
        </mxCell>
        <mxCell id="asMnh2SLZ0_MW1p4lzxj-58" value="5" style="whiteSpace=wrap;html=1;fillColor=#008a00;fontColor=#ffffff;strokeColor=#005700;" vertex="1" parent="1">
          <mxGeometry x="280" y="800" width="40" height="40" as="geometry" />
        </mxCell>
        <mxCell id="asMnh2SLZ0_MW1p4lzxj-59" value="6" style="whiteSpace=wrap;html=1;fillColor=#008a00;fontColor=#ffffff;strokeColor=#005700;" vertex="1" parent="1">
          <mxGeometry x="320" y="800" width="40" height="40" as="geometry" />
        </mxCell>
        <mxCell id="asMnh2SLZ0_MW1p4lzxj-60" value="7" style="whiteSpace=wrap;html=1;fillColor=#008a00;fontColor=#ffffff;strokeColor=#005700;" vertex="1" parent="1">
          <mxGeometry x="360" y="800" width="40" height="40" as="geometry" />
        </mxCell>
        <mxCell id="asMnh2SLZ0_MW1p4lzxj-61" value="8" style="whiteSpace=wrap;html=1;fillColor=#008a00;fontColor=#ffffff;strokeColor=#005700;" vertex="1" parent="1">
          <mxGeometry x="400" y="800" width="40" height="40" as="geometry" />
        </mxCell>
        <mxCell id="asMnh2SLZ0_MW1p4lzxj-62" value="9" style="whiteSpace=wrap;html=1;fillColor=#008a00;fontColor=#ffffff;strokeColor=#005700;" vertex="1" parent="1">
          <mxGeometry x="440" y="800" width="40" height="40" as="geometry" />
        </mxCell>
        <mxCell id="asMnh2SLZ0_MW1p4lzxj-63" value="10" style="whiteSpace=wrap;html=1;fillColor=#6D1FA8;fontColor=#ffffff;strokeColor=#005700;" vertex="1" parent="1">
          <mxGeometry x="480" y="800" width="40" height="40" as="geometry" />
        </mxCell>
        <mxCell id="asMnh2SLZ0_MW1p4lzxj-64" value="11" style="whiteSpace=wrap;html=1;fillColor=#008a00;fontColor=#ffffff;strokeColor=#005700;" vertex="1" parent="1">
          <mxGeometry x="520" y="800" width="40" height="40" as="geometry" />
        </mxCell>
        <mxCell id="asMnh2SLZ0_MW1p4lzxj-65" value="12" style="whiteSpace=wrap;html=1;fillColor=#008a00;fontColor=#ffffff;strokeColor=#005700;" vertex="1" parent="1">
          <mxGeometry x="560" y="800" width="40" height="40" as="geometry" />
        </mxCell>
        <mxCell id="asMnh2SLZ0_MW1p4lzxj-66" value="13" style="whiteSpace=wrap;html=1;fillColor=#f0a30a;fontColor=#000000;strokeColor=#BD7000;" vertex="1" parent="1">
          <mxGeometry x="600" y="800" width="40" height="40" as="geometry" />
        </mxCell>
        <mxCell id="asMnh2SLZ0_MW1p4lzxj-67" value="&lt;div&gt;&lt;font style=&quot;font-size: 28px;&quot;&gt;Given nums = [1, 3, 6], n = 10&lt;/font&gt;&lt;/div&gt;" style="text;html=1;align=center;verticalAlign=middle;whiteSpace=wrap;rounded=0;" vertex="1" parent="1">
          <mxGeometry x="110" y="50" width="400" height="30" as="geometry" />
        </mxCell>
        <mxCell id="asMnh2SLZ0_MW1p4lzxj-68" value="&lt;div&gt;&lt;font style=&quot;font-size: 28px;&quot;&gt;Initialization = [1, 1)&lt;/font&gt;&lt;/div&gt;" style="text;html=1;align=left;verticalAlign=middle;whiteSpace=wrap;rounded=0;" vertex="1" parent="1">
          <mxGeometry x="120" y="110" width="300" height="30" as="geometry" />
        </mxCell>
        <mxCell id="asMnh2SLZ0_MW1p4lzxj-70" value="&lt;div&gt;&lt;font style=&quot;font-size: 28px;&quot;&gt;Checking 1, extend to [1, 2)&lt;/font&gt;&lt;/div&gt;" style="text;html=1;align=center;verticalAlign=middle;whiteSpace=wrap;rounded=0;" vertex="1" parent="1">
          <mxGeometry x="110" y="280" width="360" height="30" as="geometry" />
        </mxCell>
        <mxCell id="asMnh2SLZ0_MW1p4lzxj-71" value="&lt;div&gt;&lt;font style=&quot;font-size: 28px;&quot;&gt;Checking 3, Patch 2, extend to [1, 2*2) = [1,4)&lt;/font&gt;&lt;/div&gt;" style="text;html=1;align=left;verticalAlign=middle;whiteSpace=wrap;rounded=0;" vertex="1" parent="1">
          <mxGeometry x="120" y="440" width="620" height="30" as="geometry" />
        </mxCell>
        <mxCell id="asMnh2SLZ0_MW1p4lzxj-72" value="&lt;div&gt;&lt;font style=&quot;font-size: 28px;&quot;&gt;Checking 3, extend to [1, 4+3) = [1, 7 )&lt;/font&gt;&lt;/div&gt;" style="text;html=1;align=center;verticalAlign=middle;whiteSpace=wrap;rounded=0;" vertex="1" parent="1">
          <mxGeometry x="110" y="600" width="500" height="30" as="geometry" />
        </mxCell>
        <mxCell id="asMnh2SLZ0_MW1p4lzxj-73" value="&lt;div&gt;&lt;font style=&quot;font-size: 28px;&quot;&gt;Checking 6, extend to [1, 7+6) = [1, 13)&lt;/font&gt;&lt;/div&gt;" style="text;html=1;align=center;verticalAlign=middle;whiteSpace=wrap;rounded=0;" vertex="1" parent="1">
          <mxGeometry x="110" y="763" width="517" height="30" as="geometry" />
        </mxCell>
        <mxCell id="asMnh2SLZ0_MW1p4lzxj-74" value="&lt;div&gt;&lt;font style=&quot;font-size: 28px;&quot;&gt;Now we have [1, 2, 3, 6], &lt;br&gt;we can make any numbers in interval [1, 13)&lt;/font&gt;&lt;/div&gt;&lt;div&gt;&lt;font style=&quot;font-size: 28px;&quot;&gt;&lt;br&gt;&lt;/font&gt;&lt;/div&gt;&lt;div&gt;&lt;span style=&quot;font-size: 28px;&quot;&gt;Counting of patch = 1&amp;nbsp;&lt;/span&gt;&lt;/div&gt;" style="text;html=1;align=left;verticalAlign=middle;whiteSpace=wrap;rounded=0;" vertex="1" parent="1">
          <mxGeometry x="120" y="900" width="680" height="30" as="geometry" />
        </mxCell>
      </root>
    </mxGraphModel>
  </diagram>
</mxfile>
